<mxfile modified="2024-07-17T07:25:12.763Z" host="Electron" agent="Mozilla/5.0 (Windows NT 10.0; Win64; x64) AppleWebKit/537.36 (KHTML, like Gecko) draw.io/24.6.4 Chrome/124.0.6367.207 Electron/30.0.6 Safari/537.36" etag="yrTR7MeL9bU82LfHfnHc" version="24.6.4" type="device">
  <diagram id="Ht1M8jgEwFfnCIfOTk4-" name="Page-1">
    <mxGraphModel dx="3269" dy="1338" grid="1" gridSize="10" guides="1" tooltips="1" connect="1" arrows="1" fold="1" page="1" pageScale="1" pageWidth="1169" pageHeight="827" math="0" shadow="0">
      <root>
        <mxCell id="0" />
        <mxCell id="1" parent="0" />
        <mxCell id="k1J5Uft5zTIaOylSxwT3-11" value="フロントアプリケーションはCloudFrontでデプロイ&lt;div&gt;ここに対してアプリケーション段階での攻撃防止のためにWAFを設定&lt;/div&gt;&lt;div&gt;ddos攻撃を防ぐためにShiledの導入も考慮&lt;/div&gt;&lt;div&gt;(Shiled Standardの場合、無料)&lt;/div&gt;" style="text;html=1;align=left;verticalAlign=top;spacingTop=-4;fontSize=14;labelBackgroundColor=none;whiteSpace=wrap;fontColor=#202222;" parent="1" vertex="1">
          <mxGeometry x="1490" y="196.5" width="449" height="118" as="geometry" />
        </mxCell>
        <mxCell id="k1J5Uft5zTIaOylSxwT3-12" value="NAT Gatewayを使ってサービスをプライベートに隔離&lt;div&gt;(現状の場合、NAT Gatewayを使わずにパブリックで運用しても構わない)&lt;/div&gt;&lt;div&gt;そして、ユーザー側はEC2又はFargateで構築されたジャンプサーバーをSSMを経由してプライベートに隔離されたサービスに接近&lt;/div&gt;&lt;div&gt;&lt;br&gt;&lt;/div&gt;" style="text;html=1;align=left;verticalAlign=top;spacingTop=-4;fontSize=14;labelBackgroundColor=none;whiteSpace=wrap;fontColor=#202222;" parent="1" vertex="1">
          <mxGeometry x="1489" y="285" width="450" height="115" as="geometry" />
        </mxCell>
        <mxCell id="k1J5Uft5zTIaOylSxwT3-13" value="&lt;span&gt;GitHubリポジトリにコードを管理して、GitHubActionを利用してAWSリソースにビルド及びデプロイを行う&lt;br&gt;詳細はarchitecture_CI_CDを参考&lt;br&gt;&lt;/span&gt;" style="text;html=1;align=left;verticalAlign=top;spacingTop=-4;fontSize=14;labelBackgroundColor=none;whiteSpace=wrap;fontColor=#202222;" parent="1" vertex="1">
          <mxGeometry x="1489" y="384.5" width="450" height="117" as="geometry" />
        </mxCell>
        <mxCell id="k1J5Uft5zTIaOylSxwT3-14" value="環境を問わず、WEBサーバー、プロントアプリケーション、バックエンドアプリケーションとサイドカーが載せられたECSのクラスター&lt;br&gt;詳細はarchitecture_applications&lt;span&gt;を参考&lt;br&gt;&lt;/span&gt;" style="text;html=1;align=left;verticalAlign=top;spacingTop=-4;fontSize=14;labelBackgroundColor=none;whiteSpace=wrap;fontColor=#202222;" parent="1" vertex="1">
          <mxGeometry x="1489" y="455" width="450" height="121" as="geometry" />
        </mxCell>
        <mxCell id="k1J5Uft5zTIaOylSxwT3-15" value="&lt;span&gt;プライベートサブネットにあるRDS&lt;br&gt;&lt;/span&gt;ここに接近するためのパラメータはSecret Manager又はSSM Parameter Storeで管理&lt;br&gt;その他、CloudFormtationとかで機密情報が載せられた部分も含む" style="text;html=1;align=left;verticalAlign=top;spacingTop=-4;fontSize=14;labelBackgroundColor=none;whiteSpace=wrap;fontColor=#202222;" parent="1" vertex="1">
          <mxGeometry x="1490" y="525" width="449" height="114" as="geometry" />
        </mxCell>
        <mxCell id="k1J5Uft5zTIaOylSxwT3-16" value="主に監視と追跡のため、導入を考えるべきのサービス&lt;br&gt;詳細はarchitecture_applicationsを参考&lt;span&gt;&lt;br&gt;&lt;/span&gt;" style="text;html=1;align=left;verticalAlign=top;spacingTop=-4;fontSize=14;labelBackgroundColor=none;whiteSpace=wrap;fontColor=#202222;" parent="1" vertex="1">
          <mxGeometry x="1490" y="616" width="450" height="118" as="geometry" />
        </mxCell>
        <mxCell id="k1J5Uft5zTIaOylSxwT3-17" value="&lt;span&gt;構成図に記述されていないが、運用に入っているサービス&lt;br&gt;&lt;/span&gt;導入可能性が高い上、別途に引き出しているサービス" style="text;html=1;align=left;verticalAlign=top;spacingTop=-4;fontSize=14;labelBackgroundColor=none;whiteSpace=wrap;fontColor=#202222;" parent="1" vertex="1">
          <mxGeometry x="1490" y="675" width="449" height="113" as="geometry" />
        </mxCell>
        <mxCell id="-QjtrjUzRDEMRZ5MF8oH-47" value="EasyMap" style="text;html=1;resizable=0;points=[];autosize=1;align=left;verticalAlign=top;spacingTop=-4;fontSize=30;fontStyle=1" parent="1" vertex="1">
          <mxGeometry x="56.5" y="64.5" width="150" height="40" as="geometry" />
        </mxCell>
        <mxCell id="-QjtrjUzRDEMRZ5MF8oH-48" value="構想_v1.0" style="text;html=1;resizable=0;points=[];autosize=1;align=left;verticalAlign=top;spacingTop=-4;fontSize=16" parent="1" vertex="1">
          <mxGeometry x="56.5" y="114.5" width="90" height="30" as="geometry" />
        </mxCell>
        <mxCell id="SCVMTBWpLvtzJIhz15lM-1" value="" style="line;strokeWidth=2;html=1;fontSize=14;" parent="1" vertex="1">
          <mxGeometry x="52.5" y="139.5" width="1060" height="10" as="geometry" />
        </mxCell>
        <mxCell id="k1J5Uft5zTIaOylSxwT3-1" value="" style="rounded=0;whiteSpace=wrap;html=1;fillColor=#EAEDED;fontSize=22;fontColor=#FFFFFF;strokeColor=none;labelBackgroundColor=none;" parent="1" vertex="1">
          <mxGeometry x="1420" y="184.5" width="539" height="570" as="geometry" />
        </mxCell>
        <mxCell id="k1J5Uft5zTIaOylSxwT3-2" value="1" style="rounded=1;whiteSpace=wrap;html=1;fillColor=#007CBD;strokeColor=none;fontColor=#FFFFFF;fontStyle=1;fontSize=22;labelBackgroundColor=none;" parent="1" vertex="1">
          <mxGeometry x="1438.5" y="197" width="40" height="38" as="geometry" />
        </mxCell>
        <mxCell id="k1J5Uft5zTIaOylSxwT3-3" value="2" style="rounded=1;whiteSpace=wrap;html=1;fillColor=#007CBD;strokeColor=none;fontColor=#FFFFFF;fontStyle=1;fontSize=22;labelBackgroundColor=none;" parent="1" vertex="1">
          <mxGeometry x="1437" y="284.5" width="40" height="38" as="geometry" />
        </mxCell>
        <mxCell id="k1J5Uft5zTIaOylSxwT3-4" value="3" style="rounded=1;whiteSpace=wrap;html=1;fillColor=#007CBD;strokeColor=none;fontColor=#FFFFFF;fontStyle=1;fontSize=22;labelBackgroundColor=none;" parent="1" vertex="1">
          <mxGeometry x="1437" y="386" width="40" height="38" as="geometry" />
        </mxCell>
        <mxCell id="k1J5Uft5zTIaOylSxwT3-5" value="4" style="rounded=1;whiteSpace=wrap;html=1;fillColor=#007CBD;strokeColor=none;fontColor=#FFFFFF;fontStyle=1;fontSize=22;labelBackgroundColor=none;" parent="1" vertex="1">
          <mxGeometry x="1437" y="454.5" width="40" height="38" as="geometry" />
        </mxCell>
        <mxCell id="k1J5Uft5zTIaOylSxwT3-6" value="5" style="rounded=1;whiteSpace=wrap;html=1;fillColor=#007CBD;strokeColor=none;fontColor=#FFFFFF;fontStyle=1;fontSize=22;labelBackgroundColor=none;" parent="1" vertex="1">
          <mxGeometry x="1438.5" y="524.5" width="40" height="38" as="geometry" />
        </mxCell>
        <mxCell id="k1J5Uft5zTIaOylSxwT3-7" value="6" style="rounded=1;whiteSpace=wrap;html=1;fillColor=#007CBD;strokeColor=none;fontColor=#FFFFFF;fontStyle=1;fontSize=22;labelBackgroundColor=none;" parent="1" vertex="1">
          <mxGeometry x="1439.5" y="614.5" width="40" height="38" as="geometry" />
        </mxCell>
        <mxCell id="k1J5Uft5zTIaOylSxwT3-8" value="7" style="rounded=1;whiteSpace=wrap;html=1;fillColor=#007CBD;strokeColor=none;fontColor=#FFFFFF;fontStyle=1;fontSize=22;labelBackgroundColor=none;" parent="1" vertex="1">
          <mxGeometry x="1439" y="674.5" width="40" height="38" as="geometry" />
        </mxCell>
        <mxCell id="1tYCDRSDsCQzgZWJvc7a-12" value="AWS Cloud" style="points=[[0,0],[0.25,0],[0.5,0],[0.75,0],[1,0],[1,0.25],[1,0.5],[1,0.75],[1,1],[0.75,1],[0.5,1],[0.25,1],[0,1],[0,0.75],[0,0.5],[0,0.25]];outlineConnect=0;gradientColor=none;html=1;whiteSpace=wrap;fontSize=12;fontStyle=0;container=1;pointerEvents=0;collapsible=0;recursiveResize=0;shape=mxgraph.aws4.group;grIcon=mxgraph.aws4.group_aws_cloud_alt;strokeColor=#232F3E;fillColor=none;verticalAlign=top;align=left;spacingLeft=30;fontColor=#232F3E;dashed=0;" parent="1" vertex="1">
          <mxGeometry x="40" y="184.5" width="1350" height="965.5" as="geometry" />
        </mxCell>
        <mxCell id="1tYCDRSDsCQzgZWJvc7a-14" value="Region" style="points=[[0,0],[0.25,0],[0.5,0],[0.75,0],[1,0],[1,0.25],[1,0.5],[1,0.75],[1,1],[0.75,1],[0.5,1],[0.25,1],[0,1],[0,0.75],[0,0.5],[0,0.25]];outlineConnect=0;gradientColor=none;html=1;whiteSpace=wrap;fontSize=12;fontStyle=0;container=1;pointerEvents=0;collapsible=0;recursiveResize=0;shape=mxgraph.aws4.group;grIcon=mxgraph.aws4.group_region;strokeColor=#00A4A6;fillColor=none;verticalAlign=top;align=left;spacingLeft=30;fontColor=#147EBA;dashed=1;" parent="1tYCDRSDsCQzgZWJvc7a-12" vertex="1">
          <mxGeometry x="340" y="220" width="976.98" height="590" as="geometry" />
        </mxCell>
        <mxCell id="1tYCDRSDsCQzgZWJvc7a-15" value="Availability Zone" style="fillColor=none;strokeColor=#147EBA;dashed=1;verticalAlign=top;fontStyle=0;fontColor=#147EBA;whiteSpace=wrap;html=1;" parent="1tYCDRSDsCQzgZWJvc7a-14" vertex="1">
          <mxGeometry x="20" y="50" width="940" height="410" as="geometry" />
        </mxCell>
        <mxCell id="1tYCDRSDsCQzgZWJvc7a-49" value="Private subnet(DB)" style="points=[[0,0],[0.25,0],[0.5,0],[0.75,0],[1,0],[1,0.25],[1,0.5],[1,0.75],[1,1],[0.75,1],[0.5,1],[0.25,1],[0,1],[0,0.75],[0,0.5],[0,0.25]];outlineConnect=0;gradientColor=none;html=1;whiteSpace=wrap;fontSize=12;fontStyle=0;container=1;pointerEvents=0;collapsible=0;recursiveResize=0;shape=mxgraph.aws4.group;grIcon=mxgraph.aws4.group_security_group;grStroke=0;strokeColor=#00A4A6;fillColor=#E6F6F7;verticalAlign=top;align=left;spacingLeft=30;fontColor=#147EBA;dashed=0;" parent="1tYCDRSDsCQzgZWJvc7a-14" vertex="1">
          <mxGeometry x="670" y="100" width="200" height="327" as="geometry" />
        </mxCell>
        <mxCell id="1tYCDRSDsCQzgZWJvc7a-119" value="5" style="rounded=1;whiteSpace=wrap;html=1;fillColor=#007CBD;strokeColor=none;fontColor=#FFFFFF;fontStyle=1;fontSize=22;labelBackgroundColor=none;arcSize=50;" parent="1tYCDRSDsCQzgZWJvc7a-14" vertex="1">
          <mxGeometry x="720" y="394" width="40" height="38" as="geometry" />
        </mxCell>
        <mxCell id="glTbuXtbrnzx0vPCisSr-2" value="VPC" style="points=[[0,0],[0.25,0],[0.5,0],[0.75,0],[1,0],[1,0.25],[1,0.5],[1,0.75],[1,1],[0.75,1],[0.5,1],[0.25,1],[0,1],[0,0.75],[0,0.5],[0,0.25]];outlineConnect=0;gradientColor=none;html=1;whiteSpace=wrap;fontSize=12;fontStyle=0;container=1;pointerEvents=0;collapsible=0;recursiveResize=0;shape=mxgraph.aws4.group;grIcon=mxgraph.aws4.group_vpc2;strokeColor=#8C4FFF;fillColor=none;verticalAlign=top;align=left;spacingLeft=30;fontColor=#AAB7B8;dashed=0;" parent="1tYCDRSDsCQzgZWJvc7a-14" vertex="1">
          <mxGeometry x="30" y="70" width="920" height="385.5" as="geometry" />
        </mxCell>
        <mxCell id="1tYCDRSDsCQzgZWJvc7a-74" value="Public subnet" style="points=[[0,0],[0.25,0],[0.5,0],[0.75,0],[1,0],[1,0.25],[1,0.5],[1,0.75],[1,1],[0.75,1],[0.5,1],[0.25,1],[0,1],[0,0.75],[0,0.5],[0,0.25]];outlineConnect=0;gradientColor=none;html=1;whiteSpace=wrap;fontSize=12;fontStyle=0;container=1;pointerEvents=0;collapsible=0;recursiveResize=0;shape=mxgraph.aws4.group;grIcon=mxgraph.aws4.group_security_group;grStroke=0;strokeColor=#7AA116;fillColor=#F2F6E8;verticalAlign=top;align=left;spacingLeft=30;fontColor=#248814;dashed=0;" parent="glTbuXtbrnzx0vPCisSr-2" vertex="1">
          <mxGeometry x="172" y="210" width="210" height="160" as="geometry" />
        </mxCell>
        <mxCell id="glTbuXtbrnzx0vPCisSr-27" value="Security group" style="fillColor=none;strokeColor=#DD3522;verticalAlign=top;fontStyle=0;fontColor=#DD3522;whiteSpace=wrap;html=1;labelPosition=center;verticalLabelPosition=bottom;align=center;" parent="glTbuXtbrnzx0vPCisSr-2" vertex="1">
          <mxGeometry x="210" y="255.5" width="145" height="80" as="geometry" />
        </mxCell>
        <mxCell id="1tYCDRSDsCQzgZWJvc7a-38" value="ALB" style="sketch=0;points=[[0,0,0],[0.25,0,0],[0.5,0,0],[0.75,0,0],[1,0,0],[0,1,0],[0.25,1,0],[0.5,1,0],[0.75,1,0],[1,1,0],[0,0.25,0],[0,0.5,0],[0,0.75,0],[1,0.25,0],[1,0.5,0],[1,0.75,0]];outlineConnect=0;fontColor=#232F3E;fillColor=#ED7100;strokeColor=#ffffff;dashed=0;verticalLabelPosition=bottom;verticalAlign=top;align=center;html=1;fontSize=12;fontStyle=0;aspect=fixed;shape=mxgraph.aws4.resourceIcon;resIcon=mxgraph.aws4.elastic_load_balancing;" parent="glTbuXtbrnzx0vPCisSr-2" vertex="1">
          <mxGeometry x="251.25" y="266" width="50" height="50" as="geometry" />
        </mxCell>
        <mxCell id="dy0-1PoWe1TbCDGHFwGR-39" value="Dynamo DB" style="sketch=0;points=[[0,0,0],[0.25,0,0],[0.5,0,0],[0.75,0,0],[1,0,0],[0,1,0],[0.25,1,0],[0.5,1,0],[0.75,1,0],[1,1,0],[0,0.25,0],[0,0.5,0],[0,0.75,0],[1,0.25,0],[1,0.5,0],[1,0.75,0]];outlineConnect=0;fontColor=#FF6666;fillColor=#C925D1;strokeColor=#ffffff;dashed=0;verticalLabelPosition=bottom;verticalAlign=top;align=center;html=1;fontSize=12;fontStyle=0;aspect=fixed;shape=mxgraph.aws4.resourceIcon;resIcon=mxgraph.aws4.dynamodb;" parent="glTbuXtbrnzx0vPCisSr-2" vertex="1">
          <mxGeometry x="720" y="266" width="44.5" height="44.5" as="geometry" />
        </mxCell>
        <mxCell id="1tYCDRSDsCQzgZWJvc7a-51" value="Security group" style="fillColor=none;strokeColor=#DD3522;verticalAlign=top;fontStyle=0;fontColor=#DD3522;whiteSpace=wrap;html=1;direction=south;" parent="glTbuXtbrnzx0vPCisSr-2" vertex="1">
          <mxGeometry x="677.25" y="230.75" width="130" height="115" as="geometry" />
        </mxCell>
        <mxCell id="XonzfU6cnXxWhyrc8ULt-5" value="Security group" style="fillColor=none;strokeColor=#DD3522;verticalAlign=top;fontStyle=0;fontColor=#DD3522;whiteSpace=wrap;html=1;direction=south;" vertex="1" parent="glTbuXtbrnzx0vPCisSr-2">
          <mxGeometry x="677.25" y="75.5" width="130" height="124.5" as="geometry" />
        </mxCell>
        <mxCell id="XonzfU6cnXxWhyrc8ULt-4" value="RDS For&lt;div&gt;PostgreSQL&lt;/div&gt;" style="sketch=0;outlineConnect=0;fontColor=#232F3E;gradientColor=none;fillColor=#C925D1;strokeColor=none;dashed=0;verticalLabelPosition=bottom;verticalAlign=top;align=center;html=1;fontSize=12;fontStyle=0;aspect=fixed;pointerEvents=1;shape=mxgraph.aws4.rds_postgresql_instance;" vertex="1" parent="glTbuXtbrnzx0vPCisSr-2">
          <mxGeometry x="715" y="105.75" width="54.5" height="54.5" as="geometry" />
        </mxCell>
        <mxCell id="1tYCDRSDsCQzgZWJvc7a-118" value="4" style="rounded=1;whiteSpace=wrap;html=1;fillColor=#007CBD;strokeColor=none;fontColor=#FFFFFF;fontStyle=1;fontSize=22;labelBackgroundColor=none;" parent="1tYCDRSDsCQzgZWJvc7a-14" vertex="1">
          <mxGeometry x="420" y="216" width="40" height="38" as="geometry" />
        </mxCell>
        <mxCell id="1tYCDRSDsCQzgZWJvc7a-68" value="Private subnet(Backend)" style="points=[[0,0],[0.25,0],[0.5,0],[0.75,0],[1,0],[1,0.25],[1,0.5],[1,0.75],[1,1],[0.75,1],[0.5,1],[0.25,1],[0,1],[0,0.75],[0,0.5],[0,0.25]];outlineConnect=0;gradientColor=none;html=1;whiteSpace=wrap;fontSize=12;fontStyle=0;container=1;pointerEvents=0;collapsible=0;recursiveResize=0;shape=mxgraph.aws4.group;grIcon=mxgraph.aws4.group_security_group;grStroke=0;strokeColor=#00A4A6;fillColor=#E6F6F7;verticalAlign=top;align=left;spacingLeft=30;fontColor=#147EBA;dashed=0;" parent="1tYCDRSDsCQzgZWJvc7a-14" vertex="1">
          <mxGeometry x="460" y="254" width="190" height="178" as="geometry" />
        </mxCell>
        <mxCell id="1tYCDRSDsCQzgZWJvc7a-39" value="Security group" style="fillColor=none;strokeColor=#DD3522;verticalAlign=top;fontStyle=0;fontColor=#DD3522;whiteSpace=wrap;html=1;" parent="1tYCDRSDsCQzgZWJvc7a-68" vertex="1">
          <mxGeometry x="17.75" y="32.5" width="150" height="130" as="geometry" />
        </mxCell>
        <mxCell id="1tYCDRSDsCQzgZWJvc7a-2" value="ECS" style="sketch=0;points=[[0,0,0],[0.25,0,0],[0.5,0,0],[0.75,0,0],[1,0,0],[0,1,0],[0.25,1,0],[0.5,1,0],[0.75,1,0],[1,1,0],[0,0.25,0],[0,0.5,0],[0,0.75,0],[1,0.25,0],[1,0.5,0],[1,0.75,0]];outlineConnect=0;fontColor=#232F3E;fillColor=#ED7100;strokeColor=#ffffff;dashed=0;verticalLabelPosition=bottom;verticalAlign=top;align=center;html=1;fontSize=12;fontStyle=0;aspect=fixed;shape=mxgraph.aws4.resourceIcon;resIcon=mxgraph.aws4.ecs;" parent="1tYCDRSDsCQzgZWJvc7a-68" vertex="1">
          <mxGeometry x="70" y="84.25" width="45.5" height="45.5" as="geometry" />
        </mxCell>
        <mxCell id="1tYCDRSDsCQzgZWJvc7a-112" value="Auto Scailing" style="sketch=0;outlineConnect=0;fontColor=#232F3E;gradientColor=none;fillColor=#ED7100;strokeColor=none;dashed=0;verticalLabelPosition=bottom;verticalAlign=top;align=center;html=1;fontSize=12;fontStyle=0;aspect=fixed;pointerEvents=1;shape=mxgraph.aws4.auto_scaling2;" parent="1tYCDRSDsCQzgZWJvc7a-68" vertex="1">
          <mxGeometry x="140" y="130.5" width="38.5" height="38.5" as="geometry" />
        </mxCell>
        <mxCell id="glTbuXtbrnzx0vPCisSr-24" style="edgeStyle=orthogonalEdgeStyle;rounded=0;orthogonalLoop=1;jettySize=auto;html=1;exitX=1;exitY=0.25;exitDx=0;exitDy=0;exitPerimeter=0;" parent="1tYCDRSDsCQzgZWJvc7a-14" source="1tYCDRSDsCQzgZWJvc7a-2" edge="1">
          <mxGeometry relative="1" as="geometry">
            <Array as="points" />
            <mxPoint x="750" y="348.5" as="targetPoint" />
          </mxGeometry>
        </mxCell>
        <mxCell id="glTbuXtbrnzx0vPCisSr-25" style="edgeStyle=orthogonalEdgeStyle;rounded=0;orthogonalLoop=1;jettySize=auto;html=1;exitX=0;exitY=0.75;exitDx=0;exitDy=0;exitPerimeter=0;entryX=1;entryY=0.75;entryDx=0;entryDy=0;entryPerimeter=0;" parent="1tYCDRSDsCQzgZWJvc7a-14" source="dy0-1PoWe1TbCDGHFwGR-39" target="1tYCDRSDsCQzgZWJvc7a-2" edge="1">
          <mxGeometry relative="1" as="geometry">
            <Array as="points">
              <mxPoint x="750" y="371" />
              <mxPoint x="751" y="371" />
              <mxPoint x="751" y="372" />
            </Array>
            <mxPoint x="750.75" y="371.9375" as="sourcePoint" />
          </mxGeometry>
        </mxCell>
        <mxCell id="1tYCDRSDsCQzgZWJvc7a-69" style="edgeStyle=orthogonalEdgeStyle;rounded=0;orthogonalLoop=1;jettySize=auto;html=1;exitX=1;exitY=0.5;exitDx=0;exitDy=0;exitPerimeter=0;entryX=0;entryY=0.5;entryDx=0;entryDy=0;entryPerimeter=0;" parent="1tYCDRSDsCQzgZWJvc7a-14" source="1tYCDRSDsCQzgZWJvc7a-72" target="1tYCDRSDsCQzgZWJvc7a-2" edge="1">
          <mxGeometry relative="1" as="geometry">
            <mxPoint x="320" y="359.9999999999998" as="targetPoint" />
            <Array as="points" />
          </mxGeometry>
        </mxCell>
        <mxCell id="1tYCDRSDsCQzgZWJvc7a-114" value="2" style="rounded=1;whiteSpace=wrap;html=1;fillColor=#007CBD;strokeColor=none;fontColor=#FFFFFF;fontStyle=1;fontSize=22;labelBackgroundColor=none;" parent="1tYCDRSDsCQzgZWJvc7a-14" vertex="1">
          <mxGeometry x="174" y="236" width="40" height="38" as="geometry" />
        </mxCell>
        <mxCell id="dy0-1PoWe1TbCDGHFwGR-13" value="S3 (Frontend)" style="sketch=0;points=[[0,0,0],[0.25,0,0],[0.5,0,0],[0.75,0,0],[1,0,0],[0,1,0],[0.25,1,0],[0.5,1,0],[0.75,1,0],[1,1,0],[0,0.25,0],[0,0.5,0],[0,0.75,0],[1,0.25,0],[1,0.5,0],[1,0.75,0]];outlineConnect=0;fontColor=#232F3E;fillColor=#7AA116;strokeColor=#ffffff;dashed=0;verticalLabelPosition=bottom;verticalAlign=top;align=center;html=1;fontSize=12;fontStyle=0;aspect=fixed;shape=mxgraph.aws4.resourceIcon;resIcon=mxgraph.aws4.s3;" parent="1tYCDRSDsCQzgZWJvc7a-14" vertex="1">
          <mxGeometry x="70" y="475.5" width="78" height="78" as="geometry" />
        </mxCell>
        <mxCell id="1tYCDRSDsCQzgZWJvc7a-72" value="NAT GW" style="sketch=0;outlineConnect=0;fontColor=#232F3E;gradientColor=none;fillColor=#8C4FFF;strokeColor=none;dashed=0;verticalLabelPosition=bottom;verticalAlign=top;align=center;html=1;fontSize=12;fontStyle=0;aspect=fixed;pointerEvents=1;shape=mxgraph.aws4.nat_gateway;" parent="1tYCDRSDsCQzgZWJvc7a-14" vertex="1">
          <mxGeometry x="387.5" y="344.75" width="32.5" height="32.5" as="geometry" />
        </mxCell>
        <mxCell id="dy0-1PoWe1TbCDGHFwGR-43" value="" style="edgeStyle=orthogonalEdgeStyle;rounded=0;orthogonalLoop=1;jettySize=auto;html=1;exitX=1;exitY=0.5;exitDx=0;exitDy=0;exitPerimeter=0;entryX=0;entryY=0.5;entryDx=0;entryDy=0;entryPerimeter=0;" parent="1tYCDRSDsCQzgZWJvc7a-14" source="1tYCDRSDsCQzgZWJvc7a-38" target="1tYCDRSDsCQzgZWJvc7a-72" edge="1">
          <mxGeometry relative="1" as="geometry">
            <mxPoint x="910" y="765.5" as="targetPoint" />
            <Array as="points" />
            <mxPoint x="711" y="765.5" as="sourcePoint" />
          </mxGeometry>
        </mxCell>
        <mxCell id="1tYCDRSDsCQzgZWJvc7a-86" value="CloudWatch" style="sketch=0;points=[[0,0,0],[0.25,0,0],[0.5,0,0],[0.75,0,0],[1,0,0],[0,1,0],[0.25,1,0],[0.5,1,0],[0.75,1,0],[1,1,0],[0,0.25,0],[0,0.5,0],[0,0.75,0],[1,0.25,0],[1,0.5,0],[1,0.75,0]];points=[[0,0,0],[0.25,0,0],[0.5,0,0],[0.75,0,0],[1,0,0],[0,1,0],[0.25,1,0],[0.5,1,0],[0.75,1,0],[1,1,0],[0,0.25,0],[0,0.5,0],[0,0.75,0],[1,0.25,0],[1,0.5,0],[1,0.75,0]];outlineConnect=0;fontColor=#FF6666;fillColor=#E7157B;strokeColor=#ffffff;dashed=0;verticalLabelPosition=bottom;verticalAlign=top;align=center;html=1;fontSize=12;fontStyle=0;aspect=fixed;shape=mxgraph.aws4.resourceIcon;resIcon=mxgraph.aws4.cloudwatch_2;" parent="1tYCDRSDsCQzgZWJvc7a-14" vertex="1">
          <mxGeometry x="540" y="505.5" width="44.5" height="44.5" as="geometry" />
        </mxCell>
        <mxCell id="dy0-1PoWe1TbCDGHFwGR-46" style="edgeStyle=orthogonalEdgeStyle;rounded=0;orthogonalLoop=1;jettySize=auto;html=1;entryX=0.5;entryY=0;entryDx=0;entryDy=0;entryPerimeter=0;" parent="1tYCDRSDsCQzgZWJvc7a-14" source="1tYCDRSDsCQzgZWJvc7a-2" target="1tYCDRSDsCQzgZWJvc7a-86" edge="1">
          <mxGeometry relative="1" as="geometry" />
        </mxCell>
        <mxCell id="XonzfU6cnXxWhyrc8ULt-7" style="edgeStyle=orthogonalEdgeStyle;rounded=0;orthogonalLoop=1;jettySize=auto;html=1;exitX=0.25;exitY=0;exitDx=0;exitDy=0;exitPerimeter=0;" edge="1" parent="1tYCDRSDsCQzgZWJvc7a-14" source="1tYCDRSDsCQzgZWJvc7a-2" target="XonzfU6cnXxWhyrc8ULt-4">
          <mxGeometry relative="1" as="geometry">
            <Array as="points">
              <mxPoint x="541" y="196" />
            </Array>
          </mxGeometry>
        </mxCell>
        <mxCell id="XonzfU6cnXxWhyrc8ULt-8" style="edgeStyle=orthogonalEdgeStyle;rounded=0;orthogonalLoop=1;jettySize=auto;html=1;entryX=0.75;entryY=0;entryDx=0;entryDy=0;entryPerimeter=0;" edge="1" parent="1tYCDRSDsCQzgZWJvc7a-14" source="XonzfU6cnXxWhyrc8ULt-4" target="1tYCDRSDsCQzgZWJvc7a-2">
          <mxGeometry relative="1" as="geometry" />
        </mxCell>
        <mxCell id="1tYCDRSDsCQzgZWJvc7a-32" value="Backend CI/CD" style="fillColor=none;strokeColor=#c925d1;dashed=1;verticalAlign=top;fontStyle=0;fontColor=#5A6C86;whiteSpace=wrap;html=1;" parent="1tYCDRSDsCQzgZWJvc7a-12" vertex="1">
          <mxGeometry x="330" y="22" width="770" height="112.5" as="geometry" />
        </mxCell>
        <mxCell id="1tYCDRSDsCQzgZWJvc7a-1" value="ECR" style="sketch=0;points=[[0,0,0],[0.25,0,0],[0.5,0,0],[0.75,0,0],[1,0,0],[0,1,0],[0.25,1,0],[0.5,1,0],[0.75,1,0],[1,1,0],[0,0.25,0],[0,0.5,0],[0,0.75,0],[1,0.25,0],[1,0.5,0],[1,0.75,0]];outlineConnect=0;fontColor=#232F3E;fillColor=#ED7100;strokeColor=#ffffff;dashed=0;verticalLabelPosition=bottom;verticalAlign=top;align=center;html=1;fontSize=12;fontStyle=0;aspect=fixed;shape=mxgraph.aws4.resourceIcon;resIcon=mxgraph.aws4.ecr;" parent="1tYCDRSDsCQzgZWJvc7a-12" vertex="1">
          <mxGeometry x="614" y="155.5" width="48" height="48" as="geometry" />
        </mxCell>
        <mxCell id="1tYCDRSDsCQzgZWJvc7a-42" value="Image push" style="edgeStyle=orthogonalEdgeStyle;rounded=0;orthogonalLoop=1;jettySize=auto;html=1;entryX=0;entryY=0;entryDx=0;entryDy=0;entryPerimeter=0;labelPosition=left;verticalLabelPosition=bottom;align=right;verticalAlign=top;exitX=0.5;exitY=1;exitDx=0;exitDy=0;exitPerimeter=0;" parent="1tYCDRSDsCQzgZWJvc7a-12" target="1tYCDRSDsCQzgZWJvc7a-1" edge="1">
          <mxGeometry relative="1" as="geometry">
            <mxPoint x="571.5" y="104.75" as="sourcePoint" />
            <Array as="points">
              <mxPoint x="572" y="156" />
              <mxPoint x="614" y="156" />
            </Array>
          </mxGeometry>
        </mxCell>
        <mxCell id="1tYCDRSDsCQzgZWJvc7a-43" value="Image pull" style="edgeStyle=orthogonalEdgeStyle;rounded=0;orthogonalLoop=1;jettySize=auto;html=1;labelPosition=right;verticalLabelPosition=bottom;align=left;verticalAlign=top;entryX=0.5;entryY=1;entryDx=0;entryDy=0;entryPerimeter=0;" parent="1tYCDRSDsCQzgZWJvc7a-12" target="dy0-1PoWe1TbCDGHFwGR-6" edge="1">
          <mxGeometry relative="1" as="geometry">
            <mxPoint x="660" y="155.5" as="sourcePoint" />
            <mxPoint x="768" y="106.5" as="targetPoint" />
            <Array as="points">
              <mxPoint x="720" y="156" />
              <mxPoint x="720" y="110" />
              <mxPoint x="719" y="110" />
            </Array>
          </mxGeometry>
        </mxCell>
        <mxCell id="1tYCDRSDsCQzgZWJvc7a-47" style="edgeStyle=orthogonalEdgeStyle;rounded=0;orthogonalLoop=1;jettySize=auto;html=1;exitX=1;exitY=0.5;exitDx=0;exitDy=0;exitPerimeter=0;entryX=0.5;entryY=0;entryDx=0;entryDy=0;entryPerimeter=0;" parent="1tYCDRSDsCQzgZWJvc7a-12" source="dy0-1PoWe1TbCDGHFwGR-6" target="1tYCDRSDsCQzgZWJvc7a-2" edge="1">
          <mxGeometry relative="1" as="geometry">
            <mxPoint x="795.19" y="78.25" as="sourcePoint" />
            <Array as="points">
              <mxPoint x="893" y="78" />
            </Array>
          </mxGeometry>
        </mxCell>
        <mxCell id="dy0-1PoWe1TbCDGHFwGR-40" style="edgeStyle=orthogonalEdgeStyle;rounded=0;orthogonalLoop=1;jettySize=auto;html=1;" parent="1tYCDRSDsCQzgZWJvc7a-12" source="1tYCDRSDsCQzgZWJvc7a-29" target="1tYCDRSDsCQzgZWJvc7a-99" edge="1">
          <mxGeometry relative="1" as="geometry" />
        </mxCell>
        <mxCell id="1tYCDRSDsCQzgZWJvc7a-29" value="CloudFront" style="sketch=0;points=[[0,0,0],[0.25,0,0],[0.5,0,0],[0.75,0,0],[1,0,0],[0,1,0],[0.25,1,0],[0.5,1,0],[0.75,1,0],[1,1,0],[0,0.25,0],[0,0.5,0],[0,0.75,0],[1,0.25,0],[1,0.5,0],[1,0.75,0]];outlineConnect=0;fontColor=#232F3E;fillColor=#8C4FFF;strokeColor=#ffffff;dashed=0;verticalLabelPosition=top;verticalAlign=bottom;align=center;html=1;fontSize=12;fontStyle=0;aspect=fixed;shape=mxgraph.aws4.resourceIcon;resIcon=mxgraph.aws4.cloudfront;labelPosition=center;" parent="1tYCDRSDsCQzgZWJvc7a-12" vertex="1">
          <mxGeometry x="250.5" y="551.25" width="59.5" height="59.5" as="geometry" />
        </mxCell>
        <mxCell id="1tYCDRSDsCQzgZWJvc7a-61" value="Github" style="dashed=0;outlineConnect=0;html=1;align=center;labelPosition=center;verticalLabelPosition=top;verticalAlign=bottom;shape=mxgraph.weblogos.github" parent="1tYCDRSDsCQzgZWJvc7a-12" vertex="1">
          <mxGeometry x="400" y="48" width="60.5" height="60.5" as="geometry" />
        </mxCell>
        <mxCell id="1tYCDRSDsCQzgZWJvc7a-113" value="1" style="rounded=1;whiteSpace=wrap;html=1;fillColor=#007CBD;strokeColor=none;fontColor=#FFFFFF;fontStyle=1;fontSize=22;labelBackgroundColor=none;" parent="1tYCDRSDsCQzgZWJvc7a-12" vertex="1">
          <mxGeometry x="191.5" y="506" width="40" height="38" as="geometry" />
        </mxCell>
        <mxCell id="1tYCDRSDsCQzgZWJvc7a-117" value="3" style="rounded=1;whiteSpace=wrap;html=1;fillColor=#007CBD;strokeColor=none;fontColor=#FFFFFF;fontStyle=1;fontSize=22;labelBackgroundColor=none;" parent="1tYCDRSDsCQzgZWJvc7a-12" vertex="1">
          <mxGeometry x="350" y="70.5" width="40" height="38" as="geometry" />
        </mxCell>
        <mxCell id="dy0-1PoWe1TbCDGHFwGR-3" value="" style="sketch=0;points=[[0,0,0],[0.25,0,0],[0.5,0,0],[0.75,0,0],[1,0,0],[0,1,0],[0.25,1,0],[0.5,1,0],[0.75,1,0],[1,1,0],[0,0.25,0],[0,0.5,0],[0,0.75,0],[1,0.25,0],[1,0.5,0],[1,0.75,0]];outlineConnect=0;fontColor=#232F3E;fillColor=#C925D1;strokeColor=#ffffff;dashed=0;verticalLabelPosition=bottom;verticalAlign=top;align=center;html=1;fontSize=12;fontStyle=0;aspect=fixed;shape=mxgraph.aws4.resourceIcon;resIcon=mxgraph.aws4.codepipeline;" parent="1tYCDRSDsCQzgZWJvc7a-12" vertex="1">
          <mxGeometry x="330" y="22" width="28" height="28" as="geometry" />
        </mxCell>
        <mxCell id="dy0-1PoWe1TbCDGHFwGR-6" value="Code Deploy&lt;br&gt;on ECS" style="sketch=0;points=[[0,0,0],[0.25,0,0],[0.5,0,0],[0.75,0,0],[1,0,0],[0,1,0],[0.25,1,0],[0.5,1,0],[0.75,1,0],[1,1,0],[0,0.25,0],[0,0.5,0],[0,0.75,0],[1,0.25,0],[1,0.5,0],[1,0.75,0]];outlineConnect=0;fontColor=#232F3E;fillColor=#C925D1;strokeColor=#ffffff;dashed=0;verticalLabelPosition=bottom;verticalAlign=top;align=center;html=1;fontSize=12;fontStyle=0;aspect=fixed;shape=mxgraph.aws4.resourceIcon;resIcon=mxgraph.aws4.codedeploy;" parent="1tYCDRSDsCQzgZWJvc7a-12" vertex="1">
          <mxGeometry x="690" y="49.12" width="58.25" height="58.25" as="geometry" />
        </mxCell>
        <mxCell id="dy0-1PoWe1TbCDGHFwGR-8" style="edgeStyle=orthogonalEdgeStyle;rounded=0;orthogonalLoop=1;jettySize=auto;html=1;entryX=0;entryY=0.5;entryDx=0;entryDy=0;entryPerimeter=0;" parent="1tYCDRSDsCQzgZWJvc7a-12" source="1tYCDRSDsCQzgZWJvc7a-61" edge="1">
          <mxGeometry relative="1" as="geometry">
            <mxPoint x="545" y="78.25" as="targetPoint" />
          </mxGeometry>
        </mxCell>
        <mxCell id="dy0-1PoWe1TbCDGHFwGR-9" style="edgeStyle=orthogonalEdgeStyle;rounded=0;orthogonalLoop=1;jettySize=auto;html=1;exitX=1;exitY=0.5;exitDx=0;exitDy=0;exitPerimeter=0;entryX=0;entryY=0.5;entryDx=0;entryDy=0;entryPerimeter=0;" parent="1tYCDRSDsCQzgZWJvc7a-12" target="dy0-1PoWe1TbCDGHFwGR-6" edge="1">
          <mxGeometry relative="1" as="geometry">
            <mxPoint x="598" y="78.25" as="sourcePoint" />
          </mxGeometry>
        </mxCell>
        <mxCell id="dy0-1PoWe1TbCDGHFwGR-10" value="" style="edgeStyle=orthogonalEdgeStyle;rounded=0;orthogonalLoop=1;jettySize=auto;html=1;" parent="1tYCDRSDsCQzgZWJvc7a-12" source="1tYCDRSDsCQzgZWJvc7a-29" edge="1">
          <mxGeometry relative="1" as="geometry">
            <mxPoint x="350" y="764.5" as="sourcePoint" />
            <mxPoint x="620" y="581.5" as="targetPoint" />
            <Array as="points" />
          </mxGeometry>
        </mxCell>
        <mxCell id="dy0-1PoWe1TbCDGHFwGR-14" value="cache" style="edgeStyle=orthogonalEdgeStyle;rounded=0;orthogonalLoop=1;jettySize=auto;html=1;entryX=0.5;entryY=1;entryDx=0;entryDy=0;entryPerimeter=0;" parent="1tYCDRSDsCQzgZWJvc7a-12" source="dy0-1PoWe1TbCDGHFwGR-13" target="1tYCDRSDsCQzgZWJvc7a-29" edge="1">
          <mxGeometry relative="1" as="geometry" />
        </mxCell>
        <mxCell id="dy0-1PoWe1TbCDGHFwGR-15" value="Frontend CI/CD" style="fillColor=none;strokeColor=#c925d1;dashed=1;verticalAlign=top;fontStyle=0;fontColor=#5A6C86;whiteSpace=wrap;html=1;" parent="1tYCDRSDsCQzgZWJvc7a-12" vertex="1">
          <mxGeometry x="20" y="820" width="440" height="130" as="geometry" />
        </mxCell>
        <mxCell id="dy0-1PoWe1TbCDGHFwGR-16" value="Github" style="dashed=0;outlineConnect=0;html=1;align=center;labelPosition=center;verticalLabelPosition=top;verticalAlign=bottom;shape=mxgraph.weblogos.github" parent="1tYCDRSDsCQzgZWJvc7a-12" vertex="1">
          <mxGeometry x="60" y="869.25" width="60.5" height="60.5" as="geometry" />
        </mxCell>
        <mxCell id="dy0-1PoWe1TbCDGHFwGR-18" value="" style="sketch=0;points=[[0,0,0],[0.25,0,0],[0.5,0,0],[0.75,0,0],[1,0,0],[0,1,0],[0.25,1,0],[0.5,1,0],[0.75,1,0],[1,1,0],[0,0.25,0],[0,0.5,0],[0,0.75,0],[1,0.25,0],[1,0.5,0],[1,0.75,0]];outlineConnect=0;fontColor=#232F3E;fillColor=#C925D1;strokeColor=#ffffff;dashed=0;verticalLabelPosition=bottom;verticalAlign=top;align=center;html=1;fontSize=12;fontStyle=0;aspect=fixed;shape=mxgraph.aws4.resourceIcon;resIcon=mxgraph.aws4.codepipeline;" parent="1tYCDRSDsCQzgZWJvc7a-12" vertex="1">
          <mxGeometry x="20" y="820" width="28" height="28" as="geometry" />
        </mxCell>
        <mxCell id="dy0-1PoWe1TbCDGHFwGR-28" style="edgeStyle=orthogonalEdgeStyle;rounded=0;orthogonalLoop=1;jettySize=auto;html=1;" parent="1tYCDRSDsCQzgZWJvc7a-12" source="XonzfU6cnXxWhyrc8ULt-2" target="dy0-1PoWe1TbCDGHFwGR-27" edge="1">
          <mxGeometry relative="1" as="geometry">
            <mxPoint x="310.00000000000045" y="892.6428571428573" as="sourcePoint" />
          </mxGeometry>
        </mxCell>
        <mxCell id="dy0-1PoWe1TbCDGHFwGR-20" style="edgeStyle=orthogonalEdgeStyle;rounded=0;orthogonalLoop=1;jettySize=auto;html=1;" parent="1tYCDRSDsCQzgZWJvc7a-12" source="dy0-1PoWe1TbCDGHFwGR-16" target="XonzfU6cnXxWhyrc8ULt-2" edge="1">
          <mxGeometry relative="1" as="geometry">
            <mxPoint x="160" y="891.75" as="targetPoint" />
          </mxGeometry>
        </mxCell>
        <mxCell id="dy0-1PoWe1TbCDGHFwGR-21" style="edgeStyle=orthogonalEdgeStyle;rounded=0;orthogonalLoop=1;jettySize=auto;html=1;entryX=0;entryY=0.5;entryDx=0;entryDy=0;entryPerimeter=0;" parent="1tYCDRSDsCQzgZWJvc7a-12" edge="1">
          <mxGeometry relative="1" as="geometry">
            <mxPoint x="213" y="891.8" as="sourcePoint" />
            <mxPoint x="251.75000000000045" y="892.6250000000002" as="targetPoint" />
          </mxGeometry>
        </mxCell>
        <mxCell id="dy0-1PoWe1TbCDGHFwGR-22" value="deploy" style="edgeStyle=orthogonalEdgeStyle;rounded=0;orthogonalLoop=1;jettySize=auto;html=1;entryX=0;entryY=0.75;entryDx=0;entryDy=0;entryPerimeter=0;" parent="1tYCDRSDsCQzgZWJvc7a-12" source="XonzfU6cnXxWhyrc8ULt-2" target="dy0-1PoWe1TbCDGHFwGR-13" edge="1">
          <mxGeometry relative="1" as="geometry">
            <mxPoint x="280.875" y="863.5" as="sourcePoint" />
          </mxGeometry>
        </mxCell>
        <mxCell id="dy0-1PoWe1TbCDGHFwGR-27" value="Lambda" style="sketch=0;outlineConnect=0;fontColor=#232F3E;gradientColor=none;fillColor=#ED7100;strokeColor=none;dashed=0;verticalLabelPosition=bottom;verticalAlign=top;align=center;html=1;fontSize=12;fontStyle=0;aspect=fixed;pointerEvents=1;shape=mxgraph.aws4.lambda_function;" parent="1tYCDRSDsCQzgZWJvc7a-12" vertex="1">
          <mxGeometry x="358" y="875.5" width="48" height="48" as="geometry" />
        </mxCell>
        <mxCell id="dy0-1PoWe1TbCDGHFwGR-29" value="cache invalidation" style="edgeStyle=orthogonalEdgeStyle;rounded=0;orthogonalLoop=1;jettySize=auto;html=1;entryX=0;entryY=1;entryDx=0;entryDy=0;entryPerimeter=0;" parent="1tYCDRSDsCQzgZWJvc7a-12" source="dy0-1PoWe1TbCDGHFwGR-27" target="1tYCDRSDsCQzgZWJvc7a-29" edge="1">
          <mxGeometry relative="1" as="geometry">
            <Array as="points">
              <mxPoint x="382" y="786" />
              <mxPoint x="250" y="786" />
            </Array>
          </mxGeometry>
        </mxCell>
        <mxCell id="dy0-1PoWe1TbCDGHFwGR-31" value="SNS" style="sketch=0;points=[[0,0,0],[0.25,0,0],[0.5,0,0],[0.75,0,0],[1,0,0],[0,1,0],[0.25,1,0],[0.5,1,0],[0.75,1,0],[1,1,0],[0,0.25,0],[0,0.5,0],[0,0.75,0],[1,0.25,0],[1,0.5,0],[1,0.75,0]];outlineConnect=0;fontColor=#232F3E;fillColor=#E7157B;strokeColor=#ffffff;dashed=0;verticalLabelPosition=bottom;verticalAlign=top;align=center;html=1;fontSize=12;fontStyle=0;aspect=fixed;shape=mxgraph.aws4.resourceIcon;resIcon=mxgraph.aws4.sns;" parent="1tYCDRSDsCQzgZWJvc7a-12" vertex="1">
          <mxGeometry x="184.25" y="685.5" width="54.5" height="54.5" as="geometry" />
        </mxCell>
        <mxCell id="dy0-1PoWe1TbCDGHFwGR-32" value="alert" style="edgeStyle=orthogonalEdgeStyle;rounded=0;orthogonalLoop=1;jettySize=auto;html=1;entryX=0.5;entryY=1;entryDx=0;entryDy=0;entryPerimeter=0;" parent="1tYCDRSDsCQzgZWJvc7a-12" source="dy0-1PoWe1TbCDGHFwGR-27" target="dy0-1PoWe1TbCDGHFwGR-31" edge="1">
          <mxGeometry relative="1" as="geometry">
            <Array as="points">
              <mxPoint x="382" y="816" />
              <mxPoint x="210" y="816" />
              <mxPoint x="210" y="756" />
              <mxPoint x="211" y="756" />
            </Array>
          </mxGeometry>
        </mxCell>
        <mxCell id="dy0-1PoWe1TbCDGHFwGR-35" value="Chatbot" style="sketch=0;points=[[0,0,0],[0.25,0,0],[0.5,0,0],[0.75,0,0],[1,0,0],[0,1,0],[0.25,1,0],[0.5,1,0],[0.75,1,0],[1,1,0],[0,0.25,0],[0,0.5,0],[0,0.75,0],[1,0.25,0],[1,0.5,0],[1,0.75,0]];points=[[0,0,0],[0.25,0,0],[0.5,0,0],[0.75,0,0],[1,0,0],[0,1,0],[0.25,1,0],[0.5,1,0],[0.75,1,0],[1,1,0],[0,0.25,0],[0,0.5,0],[0,0.75,0],[1,0.25,0],[1,0.5,0],[1,0.75,0]];outlineConnect=0;fontColor=#FF6666;fillColor=#E7157B;strokeColor=#ffffff;dashed=0;verticalLabelPosition=bottom;verticalAlign=top;align=center;html=1;fontSize=12;fontStyle=0;aspect=fixed;shape=mxgraph.aws4.resourceIcon;resIcon=mxgraph.aws4.chatbot;" parent="1tYCDRSDsCQzgZWJvc7a-12" vertex="1">
          <mxGeometry x="1020" y="53.25" width="50" height="50" as="geometry" />
        </mxCell>
        <mxCell id="dy0-1PoWe1TbCDGHFwGR-36" style="edgeStyle=orthogonalEdgeStyle;rounded=0;orthogonalLoop=1;jettySize=auto;html=1;entryX=0;entryY=0.5;entryDx=0;entryDy=0;entryPerimeter=0;" parent="1tYCDRSDsCQzgZWJvc7a-12" source="dy0-1PoWe1TbCDGHFwGR-37" target="dy0-1PoWe1TbCDGHFwGR-35" edge="1">
          <mxGeometry relative="1" as="geometry" />
        </mxCell>
        <mxCell id="dy0-1PoWe1TbCDGHFwGR-38" value="" style="edgeStyle=orthogonalEdgeStyle;rounded=0;orthogonalLoop=1;jettySize=auto;html=1;entryX=0;entryY=0.5;entryDx=0;entryDy=0;entryPerimeter=0;" parent="1tYCDRSDsCQzgZWJvc7a-12" source="dy0-1PoWe1TbCDGHFwGR-6" target="dy0-1PoWe1TbCDGHFwGR-37" edge="1">
          <mxGeometry relative="1" as="geometry">
            <mxPoint x="788" y="262.5" as="sourcePoint" />
            <mxPoint x="1060" y="262.5" as="targetPoint" />
          </mxGeometry>
        </mxCell>
        <mxCell id="dy0-1PoWe1TbCDGHFwGR-37" value="SNS" style="sketch=0;points=[[0,0,0],[0.25,0,0],[0.5,0,0],[0.75,0,0],[1,0,0],[0,1,0],[0.25,1,0],[0.5,1,0],[0.75,1,0],[1,1,0],[0,0.25,0],[0,0.5,0],[0,0.75,0],[1,0.25,0],[1,0.5,0],[1,0.75,0]];outlineConnect=0;fontColor=#FF6666;fillColor=#E7157B;strokeColor=#ffffff;dashed=0;verticalLabelPosition=bottom;verticalAlign=top;align=center;html=1;fontSize=12;fontStyle=0;aspect=fixed;shape=mxgraph.aws4.resourceIcon;resIcon=mxgraph.aws4.sns;" parent="1tYCDRSDsCQzgZWJvc7a-12" vertex="1">
          <mxGeometry x="930" y="50.99" width="54.5" height="54.5" as="geometry" />
        </mxCell>
        <mxCell id="1tYCDRSDsCQzgZWJvc7a-109" value="Chatbot" style="sketch=0;points=[[0,0,0],[0.25,0,0],[0.5,0,0],[0.75,0,0],[1,0,0],[0,1,0],[0.25,1,0],[0.5,1,0],[0.75,1,0],[1,1,0],[0,0.25,0],[0,0.5,0],[0,0.75,0],[1,0.25,0],[1,0.5,0],[1,0.75,0]];points=[[0,0,0],[0.25,0,0],[0.5,0,0],[0.75,0,0],[1,0,0],[0,1,0],[0.25,1,0],[0.5,1,0],[0.75,1,0],[1,1,0],[0,0.25,0],[0,0.5,0],[0,0.75,0],[1,0.25,0],[1,0.5,0],[1,0.75,0]];outlineConnect=0;fontColor=#FF6666;fillColor=#E7157B;strokeColor=#ffffff;dashed=0;verticalLabelPosition=bottom;verticalAlign=top;align=center;html=1;fontSize=12;fontStyle=0;aspect=fixed;shape=mxgraph.aws4.resourceIcon;resIcon=mxgraph.aws4.chatbot;" parent="1tYCDRSDsCQzgZWJvc7a-12" vertex="1">
          <mxGeometry x="90" y="687.75" width="50" height="50" as="geometry" />
        </mxCell>
        <mxCell id="dy0-1PoWe1TbCDGHFwGR-34" value="" style="edgeStyle=orthogonalEdgeStyle;rounded=0;orthogonalLoop=1;jettySize=auto;html=1;" parent="1tYCDRSDsCQzgZWJvc7a-12" source="dy0-1PoWe1TbCDGHFwGR-31" target="1tYCDRSDsCQzgZWJvc7a-109" edge="1">
          <mxGeometry relative="1" as="geometry">
            <mxPoint x="184" y="712.5" as="sourcePoint" />
            <mxPoint x="-231" y="425.5" as="targetPoint" />
          </mxGeometry>
        </mxCell>
        <mxCell id="1tYCDRSDsCQzgZWJvc7a-99" value="Log Buckets" style="sketch=0;outlineConnect=0;fontColor=#ff0000;gradientColor=none;fillColor=#7AA116;strokeColor=none;dashed=0;verticalLabelPosition=bottom;verticalAlign=top;align=center;html=1;fontSize=12;fontStyle=0;aspect=fixed;pointerEvents=1;shape=mxgraph.aws4.bucket;" parent="1tYCDRSDsCQzgZWJvc7a-12" vertex="1">
          <mxGeometry x="243.38" y="395.5" width="75" height="78" as="geometry" />
        </mxCell>
        <mxCell id="dy0-1PoWe1TbCDGHFwGR-41" style="edgeStyle=orthogonalEdgeStyle;rounded=0;orthogonalLoop=1;jettySize=auto;html=1;" parent="1tYCDRSDsCQzgZWJvc7a-12" source="1tYCDRSDsCQzgZWJvc7a-38" target="1tYCDRSDsCQzgZWJvc7a-99" edge="1">
          <mxGeometry relative="1" as="geometry">
            <Array as="points">
              <mxPoint x="646" y="446" />
            </Array>
          </mxGeometry>
        </mxCell>
        <mxCell id="1tYCDRSDsCQzgZWJvc7a-92" value="SSM Parameter Store" style="sketch=0;outlineConnect=0;fontColor=#FF6666;gradientColor=none;fillColor=#E7157B;strokeColor=none;dashed=0;verticalLabelPosition=bottom;verticalAlign=top;align=center;html=1;fontSize=12;fontStyle=0;aspect=fixed;pointerEvents=1;shape=mxgraph.aws4.parameter_store;" parent="1tYCDRSDsCQzgZWJvc7a-12" vertex="1">
          <mxGeometry x="256.7" y="108.5" width="47.11" height="49" as="geometry" />
        </mxCell>
        <mxCell id="dy0-1PoWe1TbCDGHFwGR-42" style="edgeStyle=orthogonalEdgeStyle;rounded=0;orthogonalLoop=1;jettySize=auto;html=1;entryX=0;entryY=1;entryDx=0;entryDy=0;entryPerimeter=0;" parent="1tYCDRSDsCQzgZWJvc7a-12" source="1tYCDRSDsCQzgZWJvc7a-92" edge="1">
          <mxGeometry relative="1" as="geometry">
            <mxPoint x="545" y="104.75" as="targetPoint" />
          </mxGeometry>
        </mxCell>
        <mxCell id="XonzfU6cnXxWhyrc8ULt-1" value="Github Actions" style="dashed=0;outlineConnect=0;html=1;align=center;labelPosition=center;verticalLabelPosition=top;verticalAlign=bottom;shape=mxgraph.weblogos.github" vertex="1" parent="1tYCDRSDsCQzgZWJvc7a-12">
          <mxGeometry x="545" y="48" width="60.5" height="60.5" as="geometry" />
        </mxCell>
        <mxCell id="XonzfU6cnXxWhyrc8ULt-2" value="Github Actions" style="dashed=0;outlineConnect=0;html=1;align=center;labelPosition=center;verticalLabelPosition=top;verticalAlign=bottom;shape=mxgraph.weblogos.github" vertex="1" parent="1tYCDRSDsCQzgZWJvc7a-12">
          <mxGeometry x="209.75" y="869.25" width="60.5" height="60.5" as="geometry" />
        </mxCell>
        <mxCell id="XonzfU6cnXxWhyrc8ULt-15" style="edgeStyle=orthogonalEdgeStyle;rounded=0;orthogonalLoop=1;jettySize=auto;html=1;entryX=0.5;entryY=0;entryDx=0;entryDy=0;" edge="1" parent="1tYCDRSDsCQzgZWJvc7a-12" source="XonzfU6cnXxWhyrc8ULt-9" target="1tYCDRSDsCQzgZWJvc7a-49">
          <mxGeometry relative="1" as="geometry" />
        </mxCell>
        <mxCell id="XonzfU6cnXxWhyrc8ULt-9" value="Session Manager&lt;div&gt;&lt;br&gt;&lt;/div&gt;" style="sketch=0;outlineConnect=0;fontColor=#232F3E;gradientColor=none;fillColor=#E7157B;strokeColor=none;dashed=0;verticalLabelPosition=bottom;verticalAlign=top;align=center;html=1;fontSize=12;fontStyle=0;aspect=fixed;pointerEvents=1;shape=mxgraph.aws4.systems_manager_session_manager;" vertex="1" parent="1tYCDRSDsCQzgZWJvc7a-12">
          <mxGeometry x="131.75137614678897" y="285.4993119266055" width="78" height="78" as="geometry" />
        </mxCell>
        <mxCell id="XonzfU6cnXxWhyrc8ULt-10" style="edgeStyle=orthogonalEdgeStyle;rounded=0;orthogonalLoop=1;jettySize=auto;html=1;entryX=0;entryY=0;entryDx=0;entryDy=0;entryPerimeter=0;" edge="1" parent="1tYCDRSDsCQzgZWJvc7a-12" source="XonzfU6cnXxWhyrc8ULt-9" target="1tYCDRSDsCQzgZWJvc7a-2">
          <mxGeometry relative="1" as="geometry" />
        </mxCell>
        <mxCell id="XonzfU6cnXxWhyrc8ULt-16" value="S3 (User Routes Raw Data)" style="sketch=0;points=[[0,0,0],[0.25,0,0],[0.5,0,0],[0.75,0,0],[1,0,0],[0,1,0],[0.25,1,0],[0.5,1,0],[0.75,1,0],[1,1,0],[0,0.25,0],[0,0.5,0],[0,0.75,0],[1,0.25,0],[1,0.5,0],[1,0.75,0]];outlineConnect=0;fontColor=#232F3E;fillColor=#7AA116;strokeColor=#ffffff;dashed=0;verticalLabelPosition=bottom;verticalAlign=top;align=center;html=1;fontSize=12;fontStyle=0;aspect=fixed;shape=mxgraph.aws4.resourceIcon;resIcon=mxgraph.aws4.s3;" vertex="1" parent="1tYCDRSDsCQzgZWJvc7a-12">
          <mxGeometry x="620" y="835.5" width="78" height="78" as="geometry" />
        </mxCell>
        <mxCell id="XonzfU6cnXxWhyrc8ULt-17" value="S3 (User Routes Processed&amp;nbsp;Data&lt;span style=&quot;background-color: initial;&quot;&gt;)&lt;/span&gt;" style="sketch=0;points=[[0,0,0],[0.25,0,0],[0.5,0,0],[0.75,0,0],[1,0,0],[0,1,0],[0.25,1,0],[0.5,1,0],[0.75,1,0],[1,1,0],[0,0.25,0],[0,0.5,0],[0,0.75,0],[1,0.25,0],[1,0.5,0],[1,0.75,0]];outlineConnect=0;fontColor=#232F3E;fillColor=#7AA116;strokeColor=#ffffff;dashed=0;verticalLabelPosition=bottom;verticalAlign=top;align=center;html=1;fontSize=12;fontStyle=0;aspect=fixed;shape=mxgraph.aws4.resourceIcon;resIcon=mxgraph.aws4.s3;" vertex="1" parent="1tYCDRSDsCQzgZWJvc7a-12">
          <mxGeometry x="800" y="835.5" width="78" height="78" as="geometry" />
        </mxCell>
        <mxCell id="XonzfU6cnXxWhyrc8ULt-18" value="S3 (Geography Processed&amp;nbsp;Data)" style="sketch=0;points=[[0,0,0],[0.25,0,0],[0.5,0,0],[0.75,0,0],[1,0,0],[0,1,0],[0.25,1,0],[0.5,1,0],[0.75,1,0],[1,1,0],[0,0.25,0],[0,0.5,0],[0,0.75,0],[1,0.25,0],[1,0.5,0],[1,0.75,0]];outlineConnect=0;fontColor=#232F3E;fillColor=#7AA116;strokeColor=#ffffff;dashed=0;verticalLabelPosition=bottom;verticalAlign=top;align=center;html=1;fontSize=12;fontStyle=0;aspect=fixed;shape=mxgraph.aws4.resourceIcon;resIcon=mxgraph.aws4.s3;" vertex="1" parent="1tYCDRSDsCQzgZWJvc7a-12">
          <mxGeometry x="1030" y="835.5" width="78" height="78" as="geometry" />
        </mxCell>
        <mxCell id="XonzfU6cnXxWhyrc8ULt-20" style="edgeStyle=orthogonalEdgeStyle;rounded=0;orthogonalLoop=1;jettySize=auto;html=1;" edge="1" parent="1tYCDRSDsCQzgZWJvc7a-12" source="1tYCDRSDsCQzgZWJvc7a-2" target="XonzfU6cnXxWhyrc8ULt-16">
          <mxGeometry relative="1" as="geometry">
            <Array as="points">
              <mxPoint x="893" y="696" />
              <mxPoint x="660" y="696" />
            </Array>
          </mxGeometry>
        </mxCell>
        <mxCell id="XonzfU6cnXxWhyrc8ULt-21" style="edgeStyle=orthogonalEdgeStyle;rounded=0;orthogonalLoop=1;jettySize=auto;html=1;entryX=0;entryY=1;entryDx=0;entryDy=0;entryPerimeter=0;" edge="1" parent="1tYCDRSDsCQzgZWJvc7a-12" source="XonzfU6cnXxWhyrc8ULt-17" target="1tYCDRSDsCQzgZWJvc7a-2">
          <mxGeometry relative="1" as="geometry">
            <Array as="points">
              <mxPoint x="839" y="696" />
              <mxPoint x="870" y="696" />
            </Array>
          </mxGeometry>
        </mxCell>
        <mxCell id="XonzfU6cnXxWhyrc8ULt-22" style="edgeStyle=orthogonalEdgeStyle;rounded=0;orthogonalLoop=1;jettySize=auto;html=1;entryX=1;entryY=1;entryDx=0;entryDy=0;entryPerimeter=0;" edge="1" parent="1tYCDRSDsCQzgZWJvc7a-12" source="XonzfU6cnXxWhyrc8ULt-18" target="1tYCDRSDsCQzgZWJvc7a-2">
          <mxGeometry relative="1" as="geometry">
            <Array as="points">
              <mxPoint x="1069" y="696" />
              <mxPoint x="915" y="696" />
            </Array>
          </mxGeometry>
        </mxCell>
        <mxCell id="XonzfU6cnXxWhyrc8ULt-26" style="edgeStyle=orthogonalEdgeStyle;rounded=0;orthogonalLoop=1;jettySize=auto;html=1;entryX=0.5;entryY=0;entryDx=0;entryDy=0;" edge="1" parent="1tYCDRSDsCQzgZWJvc7a-12" source="XonzfU6cnXxWhyrc8ULt-23" target="1tYCDRSDsCQzgZWJvc7a-51">
          <mxGeometry relative="1" as="geometry">
            <Array as="points">
              <mxPoint x="1230" y="578" />
            </Array>
          </mxGeometry>
        </mxCell>
        <mxCell id="XonzfU6cnXxWhyrc8ULt-23" value="S3 (User Pictures Data)" style="sketch=0;points=[[0,0,0],[0.25,0,0],[0.5,0,0],[0.75,0,0],[1,0,0],[0,1,0],[0.25,1,0],[0.5,1,0],[0.75,1,0],[1,1,0],[0,0.25,0],[0,0.5,0],[0,0.75,0],[1,0.25,0],[1,0.5,0],[1,0.75,0]];outlineConnect=0;fontColor=#232F3E;fillColor=#7AA116;strokeColor=#ffffff;dashed=0;verticalLabelPosition=bottom;verticalAlign=top;align=center;html=1;fontSize=12;fontStyle=0;aspect=fixed;shape=mxgraph.aws4.resourceIcon;resIcon=mxgraph.aws4.s3;" vertex="1" parent="1tYCDRSDsCQzgZWJvc7a-12">
          <mxGeometry x="1210" y="835.5" width="78" height="78" as="geometry" />
        </mxCell>
        <mxCell id="XonzfU6cnXxWhyrc8ULt-24" style="edgeStyle=orthogonalEdgeStyle;rounded=0;orthogonalLoop=1;jettySize=auto;html=1;entryX=0.75;entryY=1;entryDx=0;entryDy=0;entryPerimeter=0;startArrow=classicThin;startFill=1;" edge="1" parent="1tYCDRSDsCQzgZWJvc7a-12" source="XonzfU6cnXxWhyrc8ULt-23" target="1tYCDRSDsCQzgZWJvc7a-2">
          <mxGeometry relative="1" as="geometry">
            <Array as="points">
              <mxPoint x="1249" y="696" />
              <mxPoint x="910" y="696" />
              <mxPoint x="910" y="604" />
            </Array>
          </mxGeometry>
        </mxCell>
        <mxCell id="1tYCDRSDsCQzgZWJvc7a-101" value="Lambda" style="sketch=0;outlineConnect=0;fontColor=#232F3E;gradientColor=none;fillColor=#ED7100;strokeColor=none;dashed=0;verticalLabelPosition=bottom;verticalAlign=top;align=center;html=1;fontSize=12;fontStyle=0;aspect=fixed;pointerEvents=1;shape=mxgraph.aws4.lambda_function;" parent="1" vertex="1">
          <mxGeometry x="380" y="1300.5" width="48" height="48" as="geometry" />
        </mxCell>
        <mxCell id="1tYCDRSDsCQzgZWJvc7a-106" value="SNS" style="sketch=0;points=[[0,0,0],[0.25,0,0],[0.5,0,0],[0.75,0,0],[1,0,0],[0,1,0],[0.25,1,0],[0.5,1,0],[0.75,1,0],[1,1,0],[0,0.25,0],[0,0.5,0],[0,0.75,0],[1,0.25,0],[1,0.5,0],[1,0.75,0]];outlineConnect=0;fontColor=#232F3E;fillColor=#E7157B;strokeColor=#ffffff;dashed=0;verticalLabelPosition=bottom;verticalAlign=top;align=center;html=1;fontSize=12;fontStyle=0;aspect=fixed;shape=mxgraph.aws4.resourceIcon;resIcon=mxgraph.aws4.sns;" parent="1" vertex="1">
          <mxGeometry x="322" y="1180" width="78" height="78" as="geometry" />
        </mxCell>
        <mxCell id="1tYCDRSDsCQzgZWJvc7a-107" value="SQS" style="sketch=0;points=[[0,0,0],[0.25,0,0],[0.5,0,0],[0.75,0,0],[1,0,0],[0,1,0],[0.25,1,0],[0.5,1,0],[0.75,1,0],[1,1,0],[0,0.25,0],[0,0.5,0],[0,0.75,0],[1,0.25,0],[1,0.5,0],[1,0.75,0]];outlineConnect=0;fontColor=#232F3E;fillColor=#E7157B;strokeColor=#ffffff;dashed=0;verticalLabelPosition=bottom;verticalAlign=top;align=center;html=1;fontSize=12;fontStyle=0;aspect=fixed;shape=mxgraph.aws4.resourceIcon;resIcon=mxgraph.aws4.sqs;" parent="1" vertex="1">
          <mxGeometry x="412" y="1180" width="78" height="78" as="geometry" />
        </mxCell>
        <mxCell id="1tYCDRSDsCQzgZWJvc7a-108" value="EventBridge" style="sketch=0;points=[[0,0,0],[0.25,0,0],[0.5,0,0],[0.75,0,0],[1,0,0],[0,1,0],[0.25,1,0],[0.5,1,0],[0.75,1,0],[1,1,0],[0,0.25,0],[0,0.5,0],[0,0.75,0],[1,0.25,0],[1,0.5,0],[1,0.75,0]];outlineConnect=0;fontColor=#232F3E;fillColor=#E7157B;strokeColor=#ffffff;dashed=0;verticalLabelPosition=bottom;verticalAlign=top;align=center;html=1;fontSize=12;fontStyle=0;aspect=fixed;shape=mxgraph.aws4.resourceIcon;resIcon=mxgraph.aws4.eventbridge;" parent="1" vertex="1">
          <mxGeometry x="230" y="1180" width="78" height="78" as="geometry" />
        </mxCell>
        <mxCell id="1tYCDRSDsCQzgZWJvc7a-110" value="CloudFormation" style="sketch=0;points=[[0,0,0],[0.25,0,0],[0.5,0,0],[0.75,0,0],[1,0,0],[0,1,0],[0.25,1,0],[0.5,1,0],[0.75,1,0],[1,1,0],[0,0.25,0],[0,0.5,0],[0,0.75,0],[1,0.25,0],[1,0.5,0],[1,0.75,0]];points=[[0,0,0],[0.25,0,0],[0.5,0,0],[0.75,0,0],[1,0,0],[0,1,0],[0.25,1,0],[0.5,1,0],[0.75,1,0],[1,1,0],[0,0.25,0],[0,0.5,0],[0,0.75,0],[1,0.25,0],[1,0.5,0],[1,0.75,0]];outlineConnect=0;fontColor=#232F3E;fillColor=#E7157B;strokeColor=#ffffff;dashed=0;verticalLabelPosition=bottom;verticalAlign=top;align=center;html=1;fontSize=12;fontStyle=0;aspect=fixed;shape=mxgraph.aws4.resourceIcon;resIcon=mxgraph.aws4.cloudformation;" parent="1" vertex="1">
          <mxGeometry x="500" y="1180" width="78" height="78" as="geometry" />
        </mxCell>
        <mxCell id="1tYCDRSDsCQzgZWJvc7a-121" value="7" style="rounded=1;whiteSpace=wrap;html=1;fillColor=#007CBD;strokeColor=none;fontColor=#FFFFFF;fontStyle=1;fontSize=22;labelBackgroundColor=none;arcSize=50;" parent="1" vertex="1">
          <mxGeometry x="160" y="1193" width="40" height="38" as="geometry" />
        </mxCell>
        <mxCell id="1tYCDRSDsCQzgZWJvc7a-135" value="CloudTrail" style="sketch=0;points=[[0,0,0],[0.25,0,0],[0.5,0,0],[0.75,0,0],[1,0,0],[0,1,0],[0.25,1,0],[0.5,1,0],[0.75,1,0],[1,1,0],[0,0.25,0],[0,0.5,0],[0,0.75,0],[1,0.25,0],[1,0.5,0],[1,0.75,0]];points=[[0,0,0],[0.25,0,0],[0.5,0,0],[0.75,0,0],[1,0,0],[0,1,0],[0.25,1,0],[0.5,1,0],[0.75,1,0],[1,1,0],[0,0.25,0],[0,0.5,0],[0,0.75,0],[1,0.25,0],[1,0.5,0],[1,0.75,0]];outlineConnect=0;fontColor=#232F3E;fillColor=#E7157B;strokeColor=#ffffff;dashed=0;verticalLabelPosition=bottom;verticalAlign=top;align=center;html=1;fontSize=12;fontStyle=0;aspect=fixed;shape=mxgraph.aws4.resourceIcon;resIcon=mxgraph.aws4.cloudtrail;" parent="1" vertex="1">
          <mxGeometry x="325.5" y="1440" width="78" height="78" as="geometry" />
        </mxCell>
        <mxCell id="1tYCDRSDsCQzgZWJvc7a-137" value="Config" style="sketch=0;points=[[0,0,0],[0.25,0,0],[0.5,0,0],[0.75,0,0],[1,0,0],[0,1,0],[0.25,1,0],[0.5,1,0],[0.75,1,0],[1,1,0],[0,0.25,0],[0,0.5,0],[0,0.75,0],[1,0.25,0],[1,0.5,0],[1,0.75,0]];points=[[0,0,0],[0.25,0,0],[0.5,0,0],[0.75,0,0],[1,0,0],[0,1,0],[0.25,1,0],[0.5,1,0],[0.75,1,0],[1,1,0],[0,0.25,0],[0,0.5,0],[0,0.75,0],[1,0.25,0],[1,0.5,0],[1,0.75,0]];outlineConnect=0;fontColor=#232F3E;fillColor=#E7157B;strokeColor=#ffffff;dashed=0;verticalLabelPosition=bottom;verticalAlign=top;align=center;html=1;fontSize=12;fontStyle=0;aspect=fixed;shape=mxgraph.aws4.resourceIcon;resIcon=mxgraph.aws4.config;" parent="1" vertex="1">
          <mxGeometry x="230" y="1440" width="78" height="78" as="geometry" />
        </mxCell>
        <mxCell id="1tYCDRSDsCQzgZWJvc7a-65" value="WAF" style="sketch=0;points=[[0,0,0],[0.25,0,0],[0.5,0,0],[0.75,0,0],[1,0,0],[0,1,0],[0.25,1,0],[0.5,1,0],[0.75,1,0],[1,1,0],[0,0.25,0],[0,0.5,0],[0,0.75,0],[1,0.25,0],[1,0.5,0],[1,0.75,0]];outlineConnect=0;fontColor=#232F3E;fillColor=#DD344C;strokeColor=#ffffff;dashed=0;verticalLabelPosition=bottom;verticalAlign=top;align=center;html=1;fontSize=12;fontStyle=0;aspect=fixed;shape=mxgraph.aws4.resourceIcon;resIcon=mxgraph.aws4.waf;" parent="1" vertex="1">
          <mxGeometry x="230" y="1294" width="56.5" height="56.5" as="geometry" />
        </mxCell>
        <mxCell id="1tYCDRSDsCQzgZWJvc7a-90" value="Shield" style="sketch=0;points=[[0,0,0],[0.25,0,0],[0.5,0,0],[0.75,0,0],[1,0,0],[0,1,0],[0.25,1,0],[0.5,1,0],[0.75,1,0],[1,1,0],[0,0.25,0],[0,0.5,0],[0,0.75,0],[1,0.25,0],[1,0.5,0],[1,0.75,0]];outlineConnect=0;fontColor=#232F3E;fillColor=#DD344C;strokeColor=#ffffff;dashed=0;verticalLabelPosition=bottom;verticalAlign=top;align=center;html=1;fontSize=12;fontStyle=0;aspect=fixed;shape=mxgraph.aws4.resourceIcon;resIcon=mxgraph.aws4.shield;" parent="1" vertex="1">
          <mxGeometry x="299.5" y="1294" width="54.5" height="54.5" as="geometry" />
        </mxCell>
        <mxCell id="1tYCDRSDsCQzgZWJvc7a-120" value="6" style="rounded=1;whiteSpace=wrap;html=1;fillColor=#007CBD;strokeColor=none;fontColor=#FFFFFF;fontStyle=1;fontSize=22;labelBackgroundColor=none;arcSize=50;direction=south;" parent="1" vertex="1">
          <mxGeometry x="163" y="1400" width="38" height="40" as="geometry" />
        </mxCell>
        <mxCell id="glTbuXtbrnzx0vPCisSr-16" value="User" style="sketch=0;outlineConnect=0;fontColor=#232F3E;gradientColor=none;fillColor=#232F3D;strokeColor=none;dashed=0;verticalLabelPosition=top;verticalAlign=bottom;align=center;html=1;fontSize=12;fontStyle=0;aspect=fixed;pointerEvents=1;shape=mxgraph.aws4.user;labelPosition=center;" parent="1" vertex="1">
          <mxGeometry x="-120" y="727.25" width="78" height="78" as="geometry" />
        </mxCell>
        <mxCell id="1tYCDRSDsCQzgZWJvc7a-75" value="Dev" style="sketch=0;outlineConnect=0;fontColor=#232F3E;gradientColor=none;fillColor=#232F3D;strokeColor=none;dashed=0;verticalLabelPosition=bottom;verticalAlign=top;align=center;html=1;fontSize=12;fontStyle=0;aspect=fixed;pointerEvents=1;shape=mxgraph.aws4.user;" parent="1" vertex="1">
          <mxGeometry x="-120" y="470" width="78" height="78" as="geometry" />
        </mxCell>
        <mxCell id="1tYCDRSDsCQzgZWJvc7a-88" style="edgeStyle=orthogonalEdgeStyle;rounded=0;orthogonalLoop=1;jettySize=auto;html=1;entryX=0;entryY=0.5;entryDx=0;entryDy=0;entryPerimeter=0;" parent="1" source="1tYCDRSDsCQzgZWJvc7a-75" target="XonzfU6cnXxWhyrc8ULt-9" edge="1">
          <mxGeometry relative="1" as="geometry">
            <mxPoint x="350" y="571" as="sourcePoint" />
            <mxPoint x="660.001376146789" y="570.9993119266055" as="targetPoint" />
          </mxGeometry>
        </mxCell>
        <mxCell id="1tYCDRSDsCQzgZWJvc7a-60" value="" style="edgeStyle=orthogonalEdgeStyle;rounded=0;orthogonalLoop=1;jettySize=auto;html=1;entryX=0;entryY=0.5;entryDx=0;entryDy=0;entryPerimeter=0;" parent="1" source="glTbuXtbrnzx0vPCisSr-16" target="1tYCDRSDsCQzgZWJvc7a-29" edge="1">
          <mxGeometry relative="1" as="geometry">
            <mxPoint x="146" y="766.2500000000002" as="sourcePoint" />
            <mxPoint x="583.5" y="953" as="targetPoint" />
          </mxGeometry>
        </mxCell>
        <mxCell id="XonzfU6cnXxWhyrc8ULt-28" style="edgeStyle=orthogonalEdgeStyle;rounded=0;orthogonalLoop=1;jettySize=auto;html=1;" edge="1" parent="1" source="XonzfU6cnXxWhyrc8ULt-16" target="XonzfU6cnXxWhyrc8ULt-29">
          <mxGeometry relative="1" as="geometry">
            <mxPoint x="890" y="1350" as="targetPoint" />
            <Array as="points">
              <mxPoint x="699" y="1350" />
            </Array>
          </mxGeometry>
        </mxCell>
        <mxCell id="XonzfU6cnXxWhyrc8ULt-30" style="edgeStyle=orthogonalEdgeStyle;rounded=0;orthogonalLoop=1;jettySize=auto;html=1;" edge="1" parent="1" source="XonzfU6cnXxWhyrc8ULt-29" target="XonzfU6cnXxWhyrc8ULt-17">
          <mxGeometry relative="1" as="geometry">
            <Array as="points">
              <mxPoint x="998" y="1230" />
              <mxPoint x="879" y="1230" />
            </Array>
          </mxGeometry>
        </mxCell>
        <mxCell id="XonzfU6cnXxWhyrc8ULt-31" style="edgeStyle=orthogonalEdgeStyle;rounded=0;orthogonalLoop=1;jettySize=auto;html=1;exitX=0.491;exitY=-0.015;exitDx=0;exitDy=0;exitPerimeter=0;" edge="1" parent="1" source="XonzfU6cnXxWhyrc8ULt-29" target="XonzfU6cnXxWhyrc8ULt-18">
          <mxGeometry relative="1" as="geometry">
            <Array as="points">
              <mxPoint x="997" y="1230" />
              <mxPoint x="1109" y="1230" />
            </Array>
          </mxGeometry>
        </mxCell>
        <mxCell id="XonzfU6cnXxWhyrc8ULt-29" value="Data&amp;nbsp;Analytics Server&amp;nbsp;" style="image;points=[];aspect=fixed;html=1;align=center;shadow=0;dashed=0;image=img/lib/allied_telesis/computer_and_terminals/Personal_Computer_with_Server.svg;" vertex="1" parent="1">
          <mxGeometry x="940" y="1294" width="116" height="116" as="geometry" />
        </mxCell>
        <mxCell id="XonzfU6cnXxWhyrc8ULt-32" value="&lt;span style=&quot;color: rgb(35, 47, 62); background-color: rgb(251, 251, 251);&quot;&gt;Geography Raw Data)&lt;/span&gt;" style="html=1;verticalLabelPosition=bottom;align=center;labelBackgroundColor=#ffffff;verticalAlign=top;strokeWidth=2;strokeColor=#0080F0;shadow=0;dashed=0;shape=mxgraph.ios7.icons.data;" vertex="1" parent="1">
          <mxGeometry x="1190" y="1325.5" width="43.71" height="53" as="geometry" />
        </mxCell>
        <mxCell id="XonzfU6cnXxWhyrc8ULt-33" style="edgeStyle=orthogonalEdgeStyle;rounded=0;orthogonalLoop=1;jettySize=auto;html=1;entryX=0.983;entryY=0.505;entryDx=0;entryDy=0;entryPerimeter=0;" edge="1" parent="1" source="XonzfU6cnXxWhyrc8ULt-32" target="XonzfU6cnXxWhyrc8ULt-29">
          <mxGeometry relative="1" as="geometry" />
        </mxCell>
        <mxCell id="XonzfU6cnXxWhyrc8ULt-35" style="edgeStyle=orthogonalEdgeStyle;rounded=0;orthogonalLoop=1;jettySize=auto;html=1;" edge="1" parent="1" source="XonzfU6cnXxWhyrc8ULt-34" target="XonzfU6cnXxWhyrc8ULt-29">
          <mxGeometry relative="1" as="geometry" />
        </mxCell>
        <mxCell id="XonzfU6cnXxWhyrc8ULt-34" value="Data" style="sketch=0;outlineConnect=0;fontColor=#232F3E;gradientColor=none;fillColor=#232F3D;strokeColor=none;dashed=0;verticalLabelPosition=bottom;verticalAlign=top;align=center;html=1;fontSize=12;fontStyle=0;aspect=fixed;pointerEvents=1;shape=mxgraph.aws4.user;labelPosition=center;" vertex="1" parent="1">
          <mxGeometry x="959" y="1480" width="78" height="78" as="geometry" />
        </mxCell>
      </root>
    </mxGraphModel>
  </diagram>
</mxfile>
